<svg width="60" height="60" viewBox="0 0 60 60" fill="none" xmlns="http://www.w3.org/2000/svg">
<path d="M53.2937 17.8535L52.0597 15.712C51.1265 14.0924 50.66 13.2826 49.866 12.9597C49.072 12.6368 48.174 12.8916 46.3782 13.4012L43.3277 14.2605C42.1812 14.5249 40.9782 14.3749 39.9315 13.837L39.0892 13.3511C38.1915 12.7761 37.501 11.9283 37.1187 10.9319L36.284 8.43841C35.735 6.78836 35.4605 5.96333 34.807 5.49143C34.1537 5.01953 33.2857 5.01953 31.5497 5.01953H28.7627C27.027 5.01953 26.159 5.01953 25.5055 5.49143C24.8521 5.96333 24.5776 6.78836 24.0287 8.43841L23.1938 10.9319C22.8116 11.9283 22.1211 12.7761 21.2234 13.3511L20.3812 13.837C19.3343 14.3749 18.1315 14.5249 16.9849 14.2605L13.9344 13.4012C12.1385 12.8916 11.2406 12.6368 10.4467 12.9597C9.65272 13.2826 9.18612 14.0924 8.25287 15.712L7.01892 17.8535C6.14415 19.3716 5.70675 20.1307 5.79165 20.9387C5.87652 21.7468 6.46207 22.398 7.63315 23.7003L10.2107 26.582C10.8407 27.3795 11.288 28.7695 11.288 30.0193C11.288 31.2695 10.8409 32.659 10.2108 33.4568L7.63315 36.3385C6.46207 37.641 5.87655 38.292 5.79165 39.1003C5.70675 39.9083 6.14415 40.6673 7.01892 42.1853L8.25285 44.3268C9.18607 45.9463 9.65272 46.7563 10.4467 47.079C11.2406 47.402 12.1385 47.1473 13.9344 46.6375L16.9848 45.7783C18.1316 45.5138 19.3347 45.664 20.3817 46.202L21.2237 46.688C22.1213 47.263 22.8116 48.1105 23.1937 49.107L24.0287 51.6008C24.5776 53.2508 24.8521 54.0758 25.5055 54.5478C26.159 55.0195 27.027 55.0195 28.7627 55.0195H31.5497C33.2857 55.0195 34.1537 55.0195 34.807 54.5478C35.4605 54.0758 35.735 53.2508 36.284 51.6008L37.119 49.107C37.501 48.1105 38.1912 47.263 39.089 46.688L39.931 46.202C40.978 45.664 42.181 45.5138 43.3277 45.7783L46.3782 46.6375C48.174 47.1473 49.072 47.402 49.866 47.079C50.66 46.7563 51.1265 45.9463 52.0597 44.3268L53.2937 42.1853C54.1685 40.6673 54.6057 39.9083 54.521 39.1003C54.436 38.292 53.8505 37.641 52.6795 36.3385L50.1017 33.4568C49.4717 32.659 49.0245 31.2695 49.0245 30.0193C49.0245 28.7695 49.472 27.3795 50.1017 26.582L52.6795 23.7003C53.8505 22.398 54.436 21.7468 54.521 20.9387C54.6057 20.1307 54.1685 19.3716 53.2937 17.8535Z" stroke="#141B34" stroke-width="3" stroke-linecap="round"/>
<path d="M38.7988 30C38.7988 34.8325 34.8813 38.75 30.0488 38.75C25.2163 38.75 21.2988 34.8325 21.2988 30C21.2988 25.1675 25.2163 21.25 30.0488 21.25C34.8813 21.25 38.7988 25.1675 38.7988 30Z" stroke="#141B34" stroke-width="3"/>
</svg>
